<svg width="70" height="70" viewBox="0 0 70 70" fill="none" xmlns="http://www.w3.org/2000/svg">
    <circle cx="35" cy="35" r="35" transform="rotate(180 35 35)" fill="#C9884B"/>
    <g clip-path="url(#clip0_216_75)">
        <path d="M46.414 23.5873C46.1632 23.34 45.8522 23.1625 45.5117 23.0726C45.1713 22.9826 44.8132 22.9832 44.473 23.0743L40.758 24.2923L28.518 36.5323C27.1498 35.7949 25.6725 35.2811 24.142 35.0103L23.856 36.9893C25.8031 37.3543 27.6371 38.172 29.21 39.3763L25.5 43.0863L24.476 42.0623L23.062 43.4763L26.562 46.9763L27.976 45.5623L26.914 44.5003L30.624 40.7903C31.8287 42.3628 32.6461 44.197 33.01 46.1443L34.99 45.8583C34.7202 44.3275 34.2064 42.85 33.468 41.4823L45.708 29.2423L46.953 25.4323C47.0259 25.1042 47.0147 24.7631 46.9205 24.4405C46.8262 24.118 46.652 23.8245 46.414 23.5873ZM43.956 28.1663L32.363 39.7603C32.0589 39.3607 31.7285 38.9818 31.374 38.6263C31.0186 38.2723 30.6401 37.9422 30.241 37.6383L41.835 26.0443L44.992 25.0073L43.956 28.1663Z" fill="white"/>
    </g>
    <defs>
        <clipPath id="clip0_216_75">
            <rect width="24" height="24" fill="white" transform="translate(23 23)"/>
        </clipPath>
    </defs>
</svg>
