<svg width="70" height="70" viewBox="0 0 70 70" fill="none" xmlns="http://www.w3.org/2000/svg">
    <circle cx="35" cy="35" r="35" transform="rotate(180 35 35)" fill="#C9884B"/>
    <g clip-path="url(#clip0_196_26)">
        <g clip-path="url(#clip1_196_26)">
            <path d="M38.7006 30.1342L36.8506 31.2002C36.341 30.6867 35.7016 30.3211 35.0006 30.1422V28.0002H33.0006V30.1422C32.2996 30.3211 31.6602 30.6867 31.1506 31.2002L29.3006 30.1342L28.3006 31.8662L30.1616 32.9392C30.06 33.2839 30.0059 33.6409 30.0006 34.0002C30.0059 34.3596 30.06 34.7165 30.1616 35.0612L28.3006 36.1342L29.3006 37.8662L31.1506 36.8002C31.6602 37.3137 32.2996 37.6793 33.0006 37.8582V40.0002H35.0006V37.8582C35.7016 37.6793 36.341 37.3137 36.8506 36.8002L38.7006 37.8662L39.7006 36.1342L37.8436 35.0612C37.9438 34.7163 37.9967 34.3594 38.0006 34.0002C37.9954 33.6409 37.9412 33.2839 37.8396 32.9392L39.7006 31.8662L38.7006 30.1342ZM34.0006 36.0002C33.605 36.0002 33.2184 35.8829 32.8895 35.6632C32.5606 35.4434 32.3042 35.131 32.1528 34.7656C32.0015 34.4001 31.9619 33.998 32.039 33.61C32.1162 33.2221 32.3067 32.8657 32.5864 32.586C32.8661 32.3063 33.2225 32.1158 33.6104 32.0386C33.9984 31.9615 34.4005 32.0011 34.766 32.1525C35.1314 32.3038 35.4438 32.5602 35.6635 32.8891C35.8833 33.218 36.0006 33.6047 36.0006 34.0002C36.0006 34.5307 35.7899 35.0394 35.4148 35.4144C35.0397 35.7895 34.531 36.0002 34.0006 36.0002ZM46.2726 34.1322C45.377 31.7686 44.212 29.5161 42.8006 27.4192C41.6282 25.8306 40.0464 24.5903 38.224 23.8306C36.4017 23.071 34.4072 22.8206 32.4536 23.1062C30.5153 23.3818 28.6857 24.1697 27.1537 25.3885C25.6216 26.6073 24.4426 28.213 23.7383 30.0397C23.0341 31.8664 22.8301 33.8479 23.1474 35.7798C23.4648 37.7117 24.292 39.5238 25.5436 41.0292C25.8387 41.3836 26.0004 41.8301 26.0006 42.2912V47.0002H39.0006V44.0002H41.2476C41.9745 43.9985 42.6763 43.7336 43.223 43.2546C43.7697 42.7755 44.1245 42.1146 44.2216 41.3942L44.6706 38.0002H47.0006V35.7882C47.0006 35.7882 46.4866 34.6222 46.2726 34.1322ZM42.9176 36.0002L42.2396 41.1312C42.2078 41.3718 42.0897 41.5925 41.9072 41.7524C41.7246 41.9123 41.4902 42.0004 41.2476 42.0002H37.0006V45.0002H28.0006V42.2912C28.0001 41.3625 27.6746 40.4632 27.0806 39.7492C26.3063 38.8254 25.7256 37.7553 25.3731 36.6026C25.0205 35.4499 24.9033 34.238 25.0283 33.0391C25.1533 31.8402 25.5181 30.6787 26.1009 29.6235C26.6837 28.5683 27.4727 27.6411 28.4209 26.8969C29.3692 26.1526 30.4573 25.6066 31.6208 25.2913C32.7842 24.9759 33.9992 24.8976 35.1935 25.0611C36.3877 25.2246 37.537 25.6264 38.5729 26.2428C39.6088 26.8592 40.5102 27.6776 41.2236 28.6492C42.5192 30.6217 43.5975 32.7286 44.4396 34.9332C44.5956 35.2902 44.7516 35.6482 44.9076 36.0022L42.9176 36.0002Z" fill="white"/>
        </g>
    </g>
    <defs>
        <clipPath id="clip0_196_26">
            <rect width="24" height="24" fill="white" transform="translate(23 23)"/>
        </clipPath>
        <clipPath id="clip1_196_26">
            <rect width="24" height="24" fill="white" transform="translate(23 23)"/>
        </clipPath>
    </defs>
</svg>
