<svg width="70" height="70" viewBox="0 0 70 70" fill="none" xmlns="http://www.w3.org/2000/svg">
    <circle cx="35" cy="35" r="35" fill="#007F90"/>
    <path fill-rule="evenodd" clip-rule="evenodd" d="M36.9602 15.3169C35.7271 15.7186 33.7777 17.2594 33.0495 18.408C32.4225 19.3971 31.8001 21.2481 31.8693 21.9173C31.8959 22.1729 31.1685 22.7174 31.1685 22.7174C29.9957 23.3567 28.0217 22.2021 28.0217 22.2021C28.0217 22.2021 27.3424 21.7477 27.101 21.7298C26.735 21.7029 26.7986 21.8339 27.4859 22.5226C28.7501 23.7894 30.2591 23.892 31.5552 22.7993C31.905 22.5044 32.9558 21.8798 33.8904 21.4111C35.6068 20.5502 36.0904 20.08 36.3512 19.0188C36.4351 18.6781 36.754 18.3016 37.1196 18.1121C39.6024 16.8259 43.302 19.9744 43.302 23.374C43.302 23.9605 43.3305 23.9752 44.4731 23.9752H45.6442L45.6408 22.9618C45.6272 18.8061 42.8299 15.4938 39.0266 15.13C38.321 15.0626 37.5178 15.1351 36.9602 15.3169ZM22.8737 25.4447C23.6341 27.0218 24.8855 27.8487 29.1994 29.6252C31.3932 30.5285 33.3975 31.4011 33.6534 31.5643C33.9694 31.7657 34.1651 32.1704 34.263 32.8249C34.3424 33.3551 34.4302 33.789 34.4578 33.789C34.4857 33.789 34.8102 33.6836 35.179 33.5548C35.6847 33.3781 35.8495 33.1923 35.8495 32.7985C35.8495 31.9442 36.6555 31.3802 39.5758 30.1899C45.2735 27.8675 46.564 27.07 47.1847 25.4868L47.5263 24.6153H34.9999H22.4736L22.8737 25.4447ZM43.1764 29.289C42.0738 29.7238 41.425 30.1468 40.7709 30.8581C39.7289 31.9907 37.8117 33.0282 33.8267 34.6157C30.3422 36.0039 29.4821 36.4925 28.9673 37.3755C28.0104 39.0174 29.4657 40.3849 32.369 40.5716L33.9332 40.6721V39.916C33.9332 39.1909 33.8963 39.1544 33.0282 39.0198C32.5304 38.9425 31.7939 38.7768 31.3915 38.6513L30.6596 38.423L31.1132 38.055C31.3627 37.8528 32.4105 37.4193 33.442 37.0918C38.8475 35.3759 42.755 32.7118 44.2753 29.7056C44.5636 29.1354 44.7742 28.6743 44.7429 28.6811C44.7116 28.6882 44.0066 28.9617 43.1764 29.289ZM34.9446 37.0237L34.359 37.2381V39.4234V41.6089L34.9978 41.5148L35.6366 41.4209V39.0985C35.6366 37.821 35.6128 36.7835 35.5834 36.7927C35.554 36.8018 35.2667 36.906 34.9446 37.0237ZM36.2754 39.9683C36.2754 40.4765 36.3865 40.6851 36.7012 40.7675C36.9355 40.8289 37.1271 40.9561 37.1271 41.0499C37.1271 41.3027 35.5044 41.8521 33.9868 42.1128C31.6093 42.5214 29.8876 43.3747 29.8876 44.1445C29.8876 44.93 31.4449 46.0829 33.1347 46.5484C33.8946 46.7579 33.9332 46.7443 33.9332 46.2623C33.9332 45.8661 33.7209 45.6622 32.9561 45.3232C32.4156 45.0836 32.017 44.7753 32.0645 44.633C32.1727 44.3077 33.3153 43.9563 35.713 43.5113C37.8977 43.1057 39.1738 42.5243 39.5121 41.7806C40.0054 40.6958 38.9429 39.5817 37.2306 39.3882L36.2754 39.2805V39.9683ZM34.8381 43.9667C34.3661 44.0578 34.359 44.1069 34.359 47.3512C34.359 50.7425 34.3942 50.8675 35.2248 50.4223C35.6038 50.219 35.6366 49.947 35.6366 47.0088C35.6366 45.2528 35.5646 43.8291 35.4769 43.8451C35.3892 43.8611 35.1015 43.9158 34.8381 43.9667ZM36.0625 46.5162C36.0625 46.8031 36.3288 47.015 36.9674 47.2362C38.9338 47.9172 37.8753 49.5094 34.2526 51.3198C31.7664 52.5619 32.2751 52.4789 35.3272 51.1442C36.5039 50.6297 37.7693 49.9314 38.1394 49.5928C39.7027 48.1621 39.0605 46.7127 36.648 46.2273C36.173 46.1318 36.0625 46.1864 36.0625 46.5162ZM34.9446 51.7619C34.4417 51.9311 34.359 52.0742 34.359 52.7778C34.359 53.7485 34.1561 53.8447 30.9522 54.3909C29.8396 54.5806 28.8896 54.7751 28.8406 54.8229C28.7918 54.8707 31.5705 54.9023 35.0155 54.8931C41.1661 54.8767 41.7638 54.7788 38.6619 54.2964C37.808 54.1635 36.7836 53.9186 36.3853 53.7517C35.736 53.4799 35.6545 53.3515 35.5957 52.5069C35.5314 51.5822 35.5195 51.5688 34.9446 51.7619Z" fill="#F8F8F8"/>
    <rect x="25.745" y="21.5132" width="6" height="3.10275" transform="rotate(-11.2459 25.745 21.5132)" fill="#007F90"/>
</svg>
