<svg width="221" height="351" viewBox="0 0 221 351" fill="none" xmlns="http://www.w3.org/2000/svg">
    <path fill-rule="evenodd" clip-rule="evenodd" d="M127.48 1.86286C116.629 5.39799 99.4748 18.9565 93.0666 29.0644C87.5484 37.768 82.0715 54.0562 82.6805 59.9456C82.9147 62.1947 80.728 64.6898 76.514 66.9858C66.1935 72.6124 58.5899 71.3658 48.8221 62.4519C46.4893 60.323 42.8449 58.4531 40.72 58.2954C37.4991 58.0588 38.0593 59.2116 44.1077 65.2718C55.2321 76.4197 68.5113 77.3227 79.9167 67.7067C82.9953 65.1122 92.2422 59.6152 100.466 55.4906C115.57 47.9153 119.825 43.7775 122.121 34.4394C122.859 31.4412 125.666 28.1276 128.883 26.4605C150.731 15.1417 183.287 42.8482 183.287 72.7644C183.287 77.9254 183.538 78.0549 193.593 78.0549H203.898L203.868 69.1373C203.748 32.5676 179.133 3.41922 145.664 0.218267C139.455 -0.374989 132.387 0.263325 127.48 1.86286ZM3.52075 90.9864C10.2119 104.864 21.2238 112.141 59.1857 127.774C78.4908 135.723 96.1283 143.401 98.3805 144.838C101.161 146.61 102.883 150.171 103.745 155.931C104.444 160.596 105.216 164.415 105.459 164.415C105.705 164.415 108.561 163.488 111.806 162.354C116.256 160.799 117.706 159.164 117.706 155.698C117.706 148.181 124.798 143.217 150.497 132.743C200.636 112.306 211.993 105.288 217.455 91.3563L220.46 83.6871H110.23H0L3.52075 90.9864ZM182.182 124.815C172.479 128.641 166.77 132.364 161.014 138.623C151.844 148.59 134.973 157.72 99.9057 171.69C69.242 183.906 61.674 188.205 57.1433 195.976C48.7228 210.424 61.5297 222.458 87.0781 224.101L100.843 224.985V218.332C100.843 211.951 100.518 211.63 92.8792 210.445C88.4984 209.765 82.0172 208.307 78.4758 207.203L72.0358 205.194L76.0268 201.955C78.2229 200.176 87.4435 196.361 96.5199 193.479C144.088 178.379 178.473 154.936 191.852 128.482C194.389 123.463 196.242 119.406 195.967 119.466C195.691 119.528 189.487 121.935 182.182 124.815ZM109.743 192.88L104.59 194.767V213.997V233.229L110.211 232.401L115.832 231.575V211.138C115.832 199.896 115.623 190.766 115.364 190.847C115.105 190.928 112.578 191.844 109.743 192.88ZM121.454 218.792C121.454 223.264 122.432 225.1 125.201 225.824C127.262 226.365 128.949 227.484 128.949 228.31C128.949 230.535 114.669 235.369 101.315 237.663C80.3926 241.259 65.2416 248.768 65.2416 255.542C65.2416 262.454 78.9461 272.6 93.8161 276.696C100.503 278.54 100.843 278.42 100.843 274.179C100.843 270.692 98.9745 268.897 92.244 265.914C87.4885 263.806 83.9809 261.093 84.3987 259.841C85.3506 256.978 95.405 253.886 116.505 249.97C135.73 246.401 146.959 241.285 149.936 234.74C154.278 225.194 144.928 215.39 129.859 213.687L121.454 212.739V218.792ZM108.806 253.978C104.652 254.779 104.59 255.211 104.59 283.761C104.59 313.604 104.899 314.704 112.209 310.786C115.544 308.997 115.832 306.603 115.832 280.748C115.832 265.295 115.199 252.767 114.427 252.908C113.655 253.049 111.124 253.529 108.806 253.978ZM119.58 276.413C119.58 278.938 121.924 280.802 127.543 282.749C144.847 288.742 135.533 302.752 103.653 318.684C81.7755 329.614 86.2518 328.884 113.11 317.139C123.464 312.611 134.6 306.466 137.856 303.487C151.613 290.897 145.962 278.142 124.733 273.871C120.552 273.03 119.58 273.51 119.58 276.413ZM109.743 322.574C105.317 324.063 104.59 325.322 104.59 331.514C104.59 340.056 102.804 340.903 74.6103 345.709C64.82 347.378 56.4594 349.09 56.0285 349.511C55.5994 349.931 80.0516 350.209 110.367 350.128C164.492 349.984 169.751 349.122 142.455 344.877C134.941 343.708 125.926 341.553 122.421 340.084C116.708 337.693 115.99 336.562 115.473 329.13C114.907 320.993 114.802 320.875 109.743 322.574Z" fill="#007F90"/>
    <rect x="26.0632" y="60.8123" width="55" height="23" transform="rotate(-13.6456 26.0632 60.8123)" fill="#F8F8F8"/>
</svg>
