<svg width="48" height="61" viewBox="0 0 48 61" fill="none" xmlns="http://www.w3.org/2000/svg">
    <path d="M10.1052 30.5H22.7368V35.5833H10.1052V30.5ZM35.3683 20.3333H10.1052V25.4167H35.3683V20.3333ZM35.3683 10.1667H10.1052V15.25H35.3683V10.1667ZM42.9472 49.4202V61L37.8946 55.9167L32.842 61V49.4202C30.9153 48.3065 29.4087 46.583 28.5569 44.5182C27.7051 42.4534 27.5559 40.1632 28.1324 38.0042C28.709 35.8452 29.979 33.9386 31.7447 32.5813C33.5103 31.224 35.6726 30.4923 37.8946 30.5C38.7486 30.5107 39.5977 30.632 40.4209 30.8609V7.625C40.4209 6.95091 40.1548 6.30443 39.681 5.82777C39.2072 5.35112 38.5646 5.08333 37.8946 5.08333H7.57892C6.90891 5.08333 6.26633 5.35112 5.79255 5.82777C5.31878 6.30443 5.05262 6.95091 5.05262 7.625V50.8333H27.7894V55.9167H0V7.625C0 5.60272 0.798492 3.66328 2.21982 2.23331C3.64114 0.803346 5.56887 0 7.57892 0L37.8946 0C39.9047 0 41.8324 0.803346 43.2537 2.23331C44.6751 3.66328 45.4735 5.60272 45.4735 7.625V34.0126C46.4631 35.1307 47.1917 36.4572 47.6058 37.8952C48.0199 39.3332 48.1091 40.8461 47.8669 42.3232C47.6247 43.8004 47.0572 45.2043 46.206 46.4323C45.3548 47.6602 44.2413 48.6811 42.9472 49.4202ZM42.9472 40.6667C42.9472 39.6613 42.6509 38.6785 42.0957 37.8425C41.5405 37.0066 40.7514 36.355 39.8282 35.9703C38.9049 35.5855 37.889 35.4849 36.9089 35.681C35.9288 35.8771 35.0285 36.3613 34.3219 37.0722C33.6153 37.7831 33.134 38.6889 32.9391 39.675C32.7441 40.661 32.8442 41.6831 33.2266 42.612C33.609 43.5408 34.2566 44.3347 35.0875 44.8933C35.9184 45.4519 36.8953 45.75 37.8946 45.75C39.2347 45.75 40.5198 45.2144 41.4674 44.2611C42.4149 43.3078 42.9472 42.0149 42.9472 40.6667Z" fill="white"/>
</svg>
