<svg width="53" height="53" viewBox="0 0 53 53" fill="none" xmlns="http://www.w3.org/2000/svg">
    <path d="M26.5 53C21.2588 53 16.1353 51.4458 11.7774 48.5339C7.4195 45.6221 4.02293 41.4834 2.0172 36.6411C0.0114821 31.7989 -0.513306 26.4706 0.509202 21.3301C1.53171 16.1896 4.05559 11.4678 7.76168 7.76168C11.4678 4.05559 16.1896 1.53171 21.3301 0.509202C26.4706 -0.513306 31.7989 0.0114821 36.6411 2.0172C41.4834 4.02293 45.6221 7.4195 48.5339 11.7774C51.4458 16.1353 53 21.2588 53 26.5C52.9924 33.5259 50.198 40.2619 45.2299 45.2299C40.2619 50.198 33.5259 52.9924 26.5 53ZM26.5 4.41668C22.1323 4.41668 17.8628 5.71184 14.2312 8.13839C10.5996 10.5649 7.76911 14.0139 6.09767 18.0491C4.42624 22.0843 3.98891 26.5245 4.841 30.8082C5.69309 35.092 7.79633 39.0269 10.8847 42.1153C13.9731 45.2037 17.908 47.3069 22.1918 48.159C26.4755 49.0111 30.9157 48.5738 34.9509 46.9023C38.9861 45.2309 42.4351 42.4004 44.8616 38.7688C47.2882 35.1373 48.5833 30.8677 48.5833 26.5C48.5769 20.6451 46.2482 15.0319 42.1082 10.8918C37.9681 6.7518 32.3549 4.42311 26.5 4.41668ZM15.4583 30.9167C15.5688 35.3223 19.875 41.9583 26.5155 41.9583C33.1559 41.9583 37.5417 35.3333 37.5417 30.9167H15.4583ZM13.25 22.0833V24.2917H22.0833V22.0833C22.0833 20.912 21.618 19.7886 20.7897 18.9603C19.9614 18.132 18.838 17.6667 17.6667 17.6667C16.4953 17.6667 15.3719 18.132 14.5436 18.9603C13.7153 19.7886 13.25 20.912 13.25 22.0833ZM30.9167 22.0833V24.2917H39.75V22.0833C39.75 20.912 39.2847 19.7886 38.4564 18.9603C37.6281 18.132 36.5047 17.6667 35.3333 17.6667C34.162 17.6667 33.0386 18.132 32.2103 18.9603C31.382 19.7886 30.9167 20.912 30.9167 22.0833Z" fill="white"/>
</svg>
