<svg width="62" height="62" viewBox="0 0 62 62" fill="none" xmlns="http://www.w3.org/2000/svg">
    <path fill-rule="evenodd" clip-rule="evenodd" d="M51.2618 0.161858C49.1525 0.571113 46.6071 2.46951 45.6486 4.34848C44.5019 6.59608 44.3159 9.26453 45.1551 11.4268C47.1425 16.5476 53.6149 18.449 58.0411 15.2123C59.3318 14.2686 60.0672 13.3581 60.8077 11.7872C61.5459 10.2213 61.7122 7.90741 61.2173 6.09133C60.0834 1.93001 55.6767 -0.694601 51.2618 0.161858ZM53.8524 2.85667C54.0565 3.14602 54.1317 3.69816 54.1317 4.90918V6.5658L54.8751 6.18897C55.7486 5.7464 56.3829 5.91013 56.5633 6.62495C56.7382 7.3166 56.3944 7.70554 54.8314 8.58534C52.2015 10.0652 51.9278 9.79048 52.0114 5.75388C52.0634 3.23706 52.1029 2.94112 52.4171 2.71306C52.9265 2.34372 53.5337 2.40447 53.8524 2.85667ZM27.0038 11.0191C24.8932 11.5399 23.4719 13.382 23.4641 15.6063C23.4578 17.3844 24.2398 18.8121 25.6792 19.65C28.3505 21.2051 31.8322 19.9092 32.6897 17.0407C33.0576 15.8099 33.0388 15.1375 32.6035 13.9823C31.7725 11.7756 29.2807 10.4572 27.0038 11.0191ZM20.6735 22.0467C20.0161 22.3185 12.9751 27.9392 12.6564 28.4466C12.333 28.9613 10.3664 37.7492 10.3664 38.6797C10.3664 40.7681 13.421 41.6046 14.5639 39.8291C14.7049 39.61 15.2337 37.5102 15.7389 35.1629C16.2442 32.8155 16.6749 30.8839 16.6957 30.8704C16.7167 30.8569 17.9245 29.911 19.3795 28.768L22.0252 26.6902V33.0159V39.3416H28.1123H34.1993L34.2556 38.7756C34.3105 38.2218 34.3907 38.1746 37.9638 36.593C41.9909 34.8104 42.3452 34.5385 42.3554 33.2215C42.3615 32.4426 41.6629 30.7042 39.6595 26.5134C38.4165 23.9132 37.8006 23.1469 36.4071 22.4672L35.3879 21.9701L28.2133 21.9329C24.2673 21.9124 20.8744 21.9637 20.6735 22.0467ZM35.9969 29.5218C36.6055 30.8335 37.0786 31.931 37.0485 31.961C36.9314 32.0773 34.5383 33.1057 34.3847 33.1057C34.1964 33.1057 34.1587 26.992 34.3458 26.8062C34.5645 26.589 34.8672 27.0868 35.9969 29.5218ZM3.64018 40.9728C2.90765 41.3708 2.83303 41.6491 2.83303 43.9854V46.245L1.94213 46.33C0.402449 46.477 0.501279 45.9423 0.501279 54.1238C0.501279 60.9267 0.521727 61.3977 0.829339 61.6743C1.30089 62.0981 6.85137 62.1129 7.45655 61.6917L7.85528 61.4145V54.1414C7.85528 45.9401 7.95429 46.477 6.41443 46.33L5.52352 46.245V44.0551C5.52352 42.8507 5.4733 41.7353 5.41214 41.5768C5.30649 41.3033 4.45002 40.7607 4.14241 40.7723C4.06348 40.7754 3.83748 40.8655 3.64018 40.9728ZM10.408 41.2723C10.0134 41.521 9.84229 42.5243 9.88068 44.3633C9.91494 45.9966 9.95296 46.1719 10.3415 46.4843C10.5743 46.6715 11.0358 46.8247 11.3671 46.8247H11.9692L12.0198 54.1441C12.0682 61.1529 12.0851 61.4743 12.4185 61.7163C12.9353 62.0915 16.7748 62.0723 17.3217 61.6917L17.7204 61.4145V54.1195V46.8247H34.0427H50.365V54.1021C50.365 60.9259 50.3854 61.3977 50.693 61.6743C50.9599 61.9143 51.4225 61.9691 53.1764 61.9691C55.0366 61.9691 55.3723 61.9246 55.6285 61.6433C55.8945 61.3514 55.9253 60.5655 55.9253 54.0946V46.8716L56.6813 46.7709C57.7889 46.6234 57.8983 46.3686 57.8983 43.94C57.8983 42.0735 57.8578 41.7957 57.5396 41.4797C57.1845 41.1269 56.9436 41.1233 33.9082 41.126C21.1081 41.1276 10.533 41.1933 10.408 41.2723ZM18.3437 48.8245C18.3955 49.0476 18.764 51.3529 19.1625 53.9474C19.6344 57.0189 19.9976 58.8524 20.2035 59.2027C21.2412 60.9675 23.8267 60.9956 24.8959 59.2537C25.3899 58.4492 25.3485 57.6143 24.5713 52.7043L23.9085 48.5173L21.079 48.4682L18.2493 48.4192L18.3437 48.8245ZM32.3462 48.8291C31.9716 50.5152 30.9759 57.8734 31.0561 58.3635C31.2892 59.7914 32.3505 60.5969 33.8714 60.5003C34.9576 60.4314 35.613 60.0634 36.1031 59.2476C36.2876 58.9403 36.7007 56.8227 37.1943 53.6518C37.6313 50.846 37.9887 48.5229 37.9887 48.4894C37.9887 48.4557 36.7393 48.4283 35.212 48.4283C32.4784 48.4283 32.4338 48.4345 32.3462 48.8291Z" fill="white"/>
</svg>
