<svg width="54" height="54" viewBox="0 0 54 54" fill="none" xmlns="http://www.w3.org/2000/svg">
    <g clip-path="url(#clip0_32_160)">
        <path d="M50.7666 3.23387C45.4251 -2.10763 37.4489 -0.804879 26.9999 7.05886C16.5531 -0.804879 8.57913 -2.10988 3.23313 3.23387C-2.11287 8.57761 -0.80562 16.5516 7.05813 27.0006C-0.80562 37.4473 -2.11062 45.4236 3.23313 50.7673C4.23504 51.8062 5.43902 52.629 6.77091 53.1851C8.10281 53.7411 9.53443 54.0186 10.9776 54.0006C15.4124 54.0006 20.7674 51.6336 26.9999 46.9446C33.2301 51.6336 38.5851 54.0006 43.0221 54.0006C44.4653 54.0186 45.8969 53.7411 47.2288 53.1851C48.5607 52.629 49.7647 51.8062 50.7666 50.7673C56.1104 45.4236 54.8166 37.4496 46.9416 27.0006C54.8054 16.5516 56.1104 8.57761 50.7666 3.23387ZM42.9411 4.56361C43.801 4.53773 44.6571 4.68783 45.4568 5.00471C46.2566 5.32159 46.9831 5.79857 47.5919 6.40636C51.5204 10.3371 48.6179 17.0106 44.0189 23.3691C42.1334 21.1461 40.0094 18.8353 37.5884 16.4121C35.1674 13.9889 32.8499 11.8649 30.6269 9.97711C34.8974 6.88786 39.3119 4.56361 42.9411 4.56361ZM41.1996 27.0006C38.9249 29.7456 36.5151 32.3128 34.4136 34.4256C32.3121 36.5383 29.7449 38.9256 26.9999 41.2003C24.2549 38.9256 21.6876 36.5158 19.5861 34.4256C17.4846 32.3353 15.0749 29.7456 12.8001 27.0006C15.0749 24.2556 17.4846 21.6861 19.5861 19.5868C21.6876 17.4876 24.2549 15.0756 26.9999 12.7986C29.7449 15.0711 32.3121 17.4853 34.4249 19.5868C36.5376 21.6883 38.9249 24.2556 41.1996 27.0006ZM6.40788 6.40861C7.01598 5.79976 7.74237 5.32194 8.54224 5.00463C9.34212 4.68731 10.1985 4.53722 11.0586 4.56361C14.6879 4.56361 19.1024 6.88786 23.3729 9.97711C21.1499 11.8649 18.8369 13.9889 16.4114 16.4121C13.9859 18.8353 11.8664 21.1371 9.97863 23.3691C5.38188 17.0106 2.47488 10.3371 6.40788 6.40861ZM6.40788 47.5836C2.47938 43.6551 5.38188 36.9793 9.97863 30.6231C11.8664 32.8461 13.9904 35.1568 16.4114 37.5801C18.8324 40.0033 21.1364 42.1318 23.3616 44.0173C17.0054 48.6208 10.3319 51.5256 6.40788 47.5926V47.5836ZM47.5829 47.5836C43.6566 51.5076 36.9854 48.6118 30.6291 44.0173C32.8476 42.1318 35.1606 39.9966 37.5794 37.5801C39.9981 35.1636 42.1244 32.8551 44.0099 30.6231C48.6179 36.9906 51.5249 43.6641 47.5919 47.5926L47.5829 47.5836Z" fill="white"/>
        <path d="M26.9997 31.4986C29.485 31.4986 31.4997 29.4839 31.4997 26.9986C31.4997 24.5133 29.485 22.4986 26.9997 22.4986C24.5145 22.4986 22.4998 24.5133 22.4998 26.9986C22.4998 29.4839 24.5145 31.4986 26.9997 31.4986Z" fill="white"/>
    </g>
    <defs>
        <clipPath id="clip0_32_160">
            <rect width="54" height="54" fill="white"/>
        </clipPath>
    </defs>
</svg>
