<svg xmlns="http://www.w3.org/2000/svg" width="27" height="27" viewBox="0 0 27 27" fill="none">
    <path fill-rule="evenodd" clip-rule="evenodd" d="M0 13.7745C0 6.4703 5.92123 0.549072 13.2254 0.549072C20.5296 0.549072 26.4509 6.4703 26.4509 13.7745C26.4509 21.0787 20.5296 26.9999 13.2254 26.9999C5.92123 26.9999 0 21.0787 0 13.7745ZM13.2254 7.16179C16.8624 7.16179 19.8382 10.1375 19.8382 13.7745C19.8382 17.0809 17.441 19.8913 14.1347 20.3872V15.6757H15.7052L16.0358 13.7745H14.2173V12.5346C14.2173 12.0387 14.4653 11.5427 15.2919 11.5427H16.1185V9.88953C16.1185 9.88953 15.3746 9.72422 14.6306 9.72422C13.1428 9.72422 12.1509 10.6335 12.1509 12.2866V13.7745H10.4977V15.6757H12.1509V20.3046C9.00983 19.8086 6.61272 17.0809 6.61272 13.7745C6.61272 10.1375 9.58844 7.16179 13.2254 7.16179Z" fill="white"/>
</svg>