<svg xmlns="http://www.w3.org/2000/svg" width="28" height="27" viewBox="0 0 28 27" fill="none">
    <path fill-rule="evenodd" clip-rule="evenodd" d="M14.075 26.9999C6.77084 26.9999 0.849609 21.0787 0.849609 13.7745C0.849609 6.4703 6.77084 0.549072 14.075 0.549072C21.3792 0.549072 27.3005 6.4703 27.3005 13.7745C27.3005 21.0787 21.3792 26.9999 14.075 26.9999ZM14.6469 10.4742C13.4624 10.9669 11.0951 11.9866 7.54492 13.5334C6.96842 13.7626 6.66643 13.9869 6.63894 14.2062C6.59248 14.5768 7.05659 14.7228 7.68859 14.9215C7.77456 14.9485 7.86364 14.9765 7.95496 15.0062C8.57675 15.2083 9.41317 15.4448 9.84799 15.4542C10.2424 15.4627 10.6826 15.3001 11.1687 14.9664C14.4857 12.7273 16.198 11.5955 16.3055 11.5711C16.3813 11.5539 16.4864 11.5323 16.5576 11.5956C16.6288 11.6589 16.6218 11.7787 16.6143 11.8109C16.5683 12.0069 14.7465 13.7006 13.8037 14.5771C13.5098 14.8504 13.3013 15.0442 13.2587 15.0884C13.1632 15.1876 13.0659 15.2814 12.9724 15.3716C12.3947 15.9284 11.9615 16.346 12.9964 17.028C13.4937 17.3557 13.8916 17.6267 14.2886 17.897C14.7222 18.1923 15.1546 18.4868 15.7141 18.8535C15.8567 18.947 15.9928 19.044 16.1254 19.1386C16.63 19.4983 17.0833 19.8215 17.6433 19.7699C17.9687 19.74 18.3049 19.434 18.4756 18.5214C18.879 16.3646 19.672 11.6916 19.8553 9.76593C19.8713 9.59722 19.8511 9.3813 19.8349 9.28652C19.8187 9.19173 19.7848 9.05669 19.6616 8.95672C19.5157 8.83832 19.2904 8.81336 19.1897 8.81505C18.7317 8.8232 18.0289 9.06756 14.6469 10.4742Z" fill="white"/>
</svg>
