<svg xmlns="http://www.w3.org/2000/svg" width="28" height="27" viewBox="0 0 28 27" fill="none">
    <path fill-rule="evenodd" clip-rule="evenodd" d="M11.1145 18.4861C11.9411 18.982 12.933 19.23 13.9249 19.23C16.9833 19.23 19.3804 16.7502 19.3804 13.8572C19.3804 12.3693 18.8844 11.0468 17.8099 9.97219C16.7353 8.98028 15.4128 8.40167 13.9249 8.40167C10.9492 8.40167 8.4694 10.8814 8.4694 13.8572C8.4694 14.8491 8.71738 15.841 9.29599 16.7502L9.46132 16.9982L8.8827 18.982L10.9492 18.4034L11.1145 18.4861ZM15.7434 14.6011C15.9087 14.6011 16.7353 15.0144 16.9006 15.097C16.9264 15.1099 16.9521 15.1208 16.9775 15.1315C17.1154 15.1897 17.2441 15.2441 17.3139 15.593C17.3966 15.593 17.3966 15.9236 17.2313 16.3369C17.1486 16.6676 16.4873 17.0809 16.1567 17.0809C16.1007 17.0809 16.047 17.0856 15.9897 17.0907C15.7088 17.1155 15.34 17.1482 14.1729 16.6676C12.7243 16.0881 11.72 14.6837 11.438 14.2893C11.3981 14.2336 11.3727 14.198 11.3625 14.1878C11.3484 14.1597 11.3199 14.1147 11.2824 14.0555C11.0995 13.7668 10.7012 13.1378 10.7012 12.452C10.7012 11.6254 11.1145 11.2121 11.2798 11.0468C11.4451 10.8814 11.6104 10.8814 11.6931 10.8814H12.0238C12.1064 10.8814 12.2717 10.8814 12.3544 11.1294C12.5197 11.4601 12.8503 12.2866 12.8503 12.3693C12.8503 12.3969 12.8595 12.4244 12.8687 12.452C12.8871 12.5071 12.9054 12.5622 12.8503 12.6173C12.809 12.6586 12.7883 12.6999 12.7677 12.7413C12.747 12.7826 12.7263 12.8239 12.685 12.8653L12.437 13.1132C12.3544 13.1959 12.2717 13.2786 12.3544 13.4439C12.437 13.6092 12.7677 14.1878 13.2636 14.6011C13.8217 15.0894 14.262 15.2833 14.4852 15.3817C14.5265 15.3999 14.5604 15.4148 14.5862 15.4277C14.7515 15.4277 14.8342 15.4277 14.9168 15.345C14.9581 15.2624 15.0615 15.1384 15.1648 15.0144C15.2681 14.8904 15.3714 14.7664 15.4127 14.6838C15.4954 14.5184 15.5781 14.5184 15.7434 14.6011Z" fill="white"/>
    <path fill-rule="evenodd" clip-rule="evenodd" d="M0.699463 13.7745C0.699463 6.4703 6.62069 0.549072 13.9249 0.549072C21.2291 0.549072 27.1503 6.4703 27.1503 13.7745C27.1503 21.0787 21.2291 26.9999 13.9249 26.9999C6.62069 26.9999 0.699463 21.0787 0.699463 13.7745ZM13.9249 7.16179C15.6607 7.16179 17.3139 7.82306 18.5538 9.06295C19.7937 10.3028 20.5376 11.956 20.5376 13.6918C20.5376 17.3288 17.5619 20.3046 13.9249 20.3046C12.8503 20.3046 11.7758 19.9739 10.7839 19.478L7.31218 20.3872L8.22143 17.0809C7.64282 16.089 7.31218 14.9317 7.31218 13.7745C7.31218 10.1375 10.2879 7.16179 13.9249 7.16179Z" fill="white"/>
</svg>