<svg width="70" height="70" viewBox="0 0 70 70" fill="none" xmlns="http://www.w3.org/2000/svg">
    <circle cx="35" cy="35" r="35" transform="rotate(180 35 35)" fill="#C9884B"/>
    <path d="M31 45.6667C31 46.403 31.597 47 32.3333 47H37.6667C38.403 47 39 46.403 39 45.6667V39L45.6667 39C46.403 39 47 38.403 47 37.6667V32.3333C47 31.597 46.403 31 45.6667 31H39L39 24.3333C39 23.597 38.403 23 37.6667 23H32.3333C31.597 23 31 23.597 31 24.3333V31H24.3333C23.597 31 23 31.597 23 32.3333V37.6667C23 38.403 23.597 39 24.3333 39H31V45.6667Z" stroke="white" stroke-width="2" stroke-linecap="round" stroke-linejoin="round"/>
</svg>
