<svg width="70" height="70" viewBox="0 0 70 70" fill="none" xmlns="http://www.w3.org/2000/svg">
    <circle cx="35" cy="35" r="35" transform="rotate(180 35 35)" fill="#C9884B"/>
    <path d="M30.8457 31H27.8003C26.1201 31 25.2794 31 24.6377 31.2906C24.0732 31.5463 23.6146 31.954 23.327 32.4557C23 33.0262 23 33.7735 23 35.2669V42.7336C23 44.2271 23 44.9734 23.327 45.5438C23.6146 46.0456 24.0732 46.454 24.6377 46.7096C25.2788 47 26.1185 47 27.7954 47H42.2046C43.8815 47 44.72 47 45.3611 46.7096C45.9256 46.454 46.3857 46.0456 46.6733 45.5438C47 44.974 47 44.2287 47 42.7381V35.2625C47 33.772 47 33.0256 46.6733 32.4557C46.3857 31.954 45.9256 31.5463 45.3611 31.2906C44.7194 31 43.8804 31 42.2003 31H39.1534M30.8457 31H39.1534M30.8457 31C30.6545 31 30.5 30.8622 30.5 30.6923V27C30.5 24.7909 32.5147 23 35 23C37.4853 23 39.5 24.7909 39.5 27V30.6923C39.5 30.8622 39.3446 31 39.1534 31" stroke="white" stroke-width="2" stroke-linecap="round" stroke-linejoin="round"/>
</svg>
