<svg width="70" height="70" viewBox="0 0 70 70" fill="none" xmlns="http://www.w3.org/2000/svg">
    <circle cx="35" cy="35" r="35" fill="#C9884B"/>
    <path d="M41.2277 30.3187L38.5286 28.3058C38.183 28.048 37.9768 27.6369 37.9768 27.206V21.4758C38.7207 21.4557 39.32 20.8457 39.32 20.097V18.3806C39.32 17.6193 38.7007 17 37.9394 17H30.9991C30.2379 17 29.6185 17.6193 29.6185 18.3806V20.097C29.6185 20.8457 30.2179 21.4557 30.9618 21.4758V27.206C30.9618 27.637 30.7556 28.0481 30.41 28.3058L27.7108 30.3187C26.9895 30.8567 26.5588 31.7151 26.5588 32.615V49.1355C26.5588 50.715 27.8439 52 29.4233 52H39.5152C41.0947 52 42.3797 50.715 42.3797 49.1355V32.6149C42.3797 31.7151 41.9491 30.8567 41.2277 30.3187ZM31.1111 18.4926H37.8275V19.9851H31.1111V18.4926ZM28.0513 32.615C28.0513 32.1839 28.2576 31.7728 28.6031 31.5152L31.3022 29.5022C32.0236 28.9642 32.4542 28.1058 32.4542 27.2059V21.4776H36.4841V27.206C36.4841 28.1059 36.9147 28.9643 37.6361 29.5022L40.3352 31.5152C40.6807 31.7729 40.887 32.1841 40.887 32.615V33.3025H28.0513V32.615ZM40.8872 49.1355C40.8872 49.892 40.2717 50.5075 39.5152 50.5075H29.4233C28.6668 50.5075 28.0513 49.8921 28.0513 49.1355V43.505H40.8872V49.1355ZM40.8872 42.0125H28.0514V34.7951H40.8872L40.8872 42.0125Z" fill="white"/>
    <path d="M35.9369 36.1418H32.4792C32.0671 36.1418 31.7329 36.4759 31.7329 36.8881C31.7329 37.3003 32.067 37.6344 32.4792 37.6344H35.9369C36.349 37.6344 36.6832 37.3003 36.6832 36.8881C36.6832 36.476 36.3491 36.1418 35.9369 36.1418Z" fill="white"/>
    <path d="M38.0142 39.1268H30.4023C29.9901 39.1268 29.656 39.4609 29.656 39.8731C29.656 40.2853 29.9901 40.6194 30.4023 40.6194H38.0142C38.4264 40.6194 38.7605 40.2853 38.7605 39.8731C38.7604 39.461 38.4264 39.1268 38.0142 39.1268Z" fill="white"/>
</svg>
