<svg width="70" height="70" viewBox="0 0 70 70" fill="none" xmlns="http://www.w3.org/2000/svg">
    <circle cx="35" cy="35" r="35" transform="rotate(180 35 35)" fill="#007F90"/>
    <g clip-path="url(#clip0_94_10)">
        <path d="M31.474 34C30.3862 34 29.3228 33.6774 28.4184 33.0731C27.5139 32.4687 26.8089 31.6098 26.3927 30.6048C25.9764 29.5998 25.8675 28.4939 26.0797 27.427C26.2919 26.3601 26.8157 25.3801 27.5849 24.6109C28.3541 23.8417 29.3341 23.3179 30.401 23.1057C31.4679 22.8935 32.5738 23.0024 33.5788 23.4187C34.5838 23.8349 35.4427 24.5399 36.0471 25.4444C36.6514 26.3488 36.974 27.4122 36.974 28.5C36.9724 29.9582 36.3924 31.3562 35.3613 32.3873C34.3302 33.4184 32.9322 33.9984 31.474 34ZM31.474 25C30.7818 25 30.1051 25.2053 29.5295 25.5899C28.9539 25.9744 28.5053 26.5211 28.2404 27.1606C27.9755 27.8002 27.9062 28.5039 28.0413 29.1828C28.1763 29.8618 28.5096 30.4854 28.9991 30.9749C29.4886 31.4644 30.1123 31.7977 30.7912 31.9328C31.4701 32.0678 32.1739 31.9985 32.8134 31.7336C33.4529 31.4687 33.9996 31.0201 34.3841 30.4445C34.7687 29.8689 34.974 29.1922 34.974 28.5C34.974 27.5717 34.6053 26.6815 33.9489 26.0251C33.2925 25.3688 32.4023 25 31.474 25ZM40 47C38.6155 47 37.2622 46.5895 36.111 45.8203C34.9599 45.0511 34.0627 43.9579 33.5328 42.6788C33.003 41.3997 32.8644 39.9922 33.1345 38.6344C33.4046 37.2765 34.0713 36.0292 35.0503 35.0503C36.0292 34.0713 37.2765 33.4046 38.6344 33.1345C39.9922 32.8644 41.3997 33.003 42.6788 33.5328C43.9579 34.0627 45.0511 34.9599 45.8203 36.111C46.5895 37.2622 47 38.6155 47 40C46.9979 41.8559 46.2597 43.6351 44.9474 44.9474C43.6351 46.2597 41.8559 46.9979 40 47ZM40 35C39.0111 35 38.0444 35.2932 37.2221 35.8427C36.3999 36.3921 35.759 37.173 35.3806 38.0866C35.0022 39.0002 34.9031 40.0056 35.0961 40.9755C35.289 41.9454 35.7652 42.8363 36.4645 43.5355C37.1637 44.2348 38.0546 44.711 39.0245 44.9039C39.9945 45.0969 40.9998 44.9978 41.9134 44.6194C42.827 44.241 43.6079 43.6001 44.1573 42.7779C44.7068 41.9556 45 40.9889 45 40C44.9984 38.6744 44.4711 37.4036 43.5338 36.4662C42.5964 35.5289 41.3256 35.0016 40 35ZM42.707 41.293L41 39.586V37H39V40.414L41.293 42.707L42.707 41.293ZM31.947 36H28C26.6744 36.0016 25.4036 36.5289 24.4662 37.4662C23.5289 38.4036 23.0016 39.6744 23 41V47H25V41C25 40.2044 25.3161 39.4413 25.8787 38.8787C26.4413 38.3161 27.2044 38 28 38H31.231C31.3885 37.307 31.6289 36.6355 31.947 36Z" fill="white"/>
    </g>
    <defs>
        <clipPath id="clip0_94_10">
            <rect width="24" height="24" fill="white" transform="translate(23 23)"/>
        </clipPath>
    </defs>
</svg>
