<svg width="70" height="70" viewBox="0 0 70 70" fill="none" xmlns="http://www.w3.org/2000/svg">
    <circle cx="35" cy="35" r="35" fill="#007F90"/>
    <path d="M43.9851 35.424V34C43.9851 31.6131 43.0368 29.3239 41.349 27.636C39.6612 25.9482 37.372 25 34.9851 25C32.5981 25 30.3089 25.9482 28.6211 27.636C26.9333 29.3239 25.9851 31.6131 25.9851 34V35.424C24.9362 35.8858 24.0779 36.694 23.5537 37.7131C23.0295 38.7322 22.8713 39.9004 23.1056 41.0222C23.3399 42.1441 23.9525 43.1513 24.8407 43.8755C25.729 44.5996 26.839 44.9966 27.9851 45H29.9851V35H27.9851V34C27.9851 32.1435 28.7226 30.363 30.0353 29.0503C31.3481 27.7375 33.1285 27 34.9851 27C36.8416 27 38.6221 27.7375 39.9348 29.0503C41.2476 30.363 41.9851 32.1435 41.9851 34V35H39.9851V43H35.9851V45H41.9851C43.1311 44.9966 44.2411 44.5996 45.1294 43.8755C46.0176 43.1513 46.6302 42.1441 46.8645 41.0222C47.0988 39.9004 46.9406 38.7322 46.4164 37.7131C45.8923 36.694 45.0339 35.8858 43.9851 35.424ZM27.9851 43C27.1894 43 26.4263 42.6839 25.8637 42.1213C25.3011 41.5587 24.9851 40.7956 24.9851 40C24.9851 39.2044 25.3011 38.4413 25.8637 37.8787C26.4263 37.3161 27.1894 37 27.9851 37V43ZM41.9851 43V37C42.7807 37 43.5438 37.3161 44.1064 37.8787C44.669 38.4413 44.9851 39.2044 44.9851 40C44.9851 40.7956 44.669 41.5587 44.1064 42.1213C43.5438 42.6839 42.7807 43 41.9851 43Z" fill="white"/>
</svg>
