<svg width="70" height="70" viewBox="0 0 70 70" fill="none" xmlns="http://www.w3.org/2000/svg">
    <circle cx="35" cy="35" r="35" transform="rotate(180 35 35)" fill="#C9884B"/>
    <g clip-path="url(#clip0_94_11)">
        <g clip-path="url(#clip1_94_11)">
            <path d="M38.7004 30.1342L36.8504 31.2002C36.3407 30.6867 35.7014 30.3211 35.0004 30.1422V28.0002H33.0004V30.1422C32.2994 30.3211 31.66 30.6867 31.1504 31.2002L29.3004 30.1342L28.3004 31.8662L30.1614 32.9392C30.0598 33.2839 30.0056 33.6409 30.0004 34.0002C30.0056 34.3596 30.0598 34.7165 30.1614 35.0612L28.3004 36.1342L29.3004 37.8662L31.1504 36.8002C31.66 37.3137 32.2994 37.6793 33.0004 37.8582V40.0002H35.0004V37.8582C35.7014 37.6793 36.3407 37.3137 36.8504 36.8002L38.7004 37.8662L39.7004 36.1342L37.8434 35.0612C37.9436 34.7163 37.9964 34.3594 38.0004 34.0002C37.9951 33.6409 37.9409 33.2839 37.8394 32.9392L39.7004 31.8662L38.7004 30.1342ZM34.0004 36.0002C33.6048 36.0002 33.2181 35.8829 32.8892 35.6632C32.5603 35.4434 32.304 35.131 32.1526 34.7656C32.0012 34.4001 31.9616 33.998 32.0388 33.61C32.116 33.2221 32.3064 32.8657 32.5861 32.586C32.8659 32.3063 33.2222 32.1158 33.6102 32.0386C33.9981 31.9615 34.4003 32.0011 34.7657 32.1525C35.1312 32.3038 35.4435 32.5602 35.6633 32.8891C35.8831 33.218 36.0004 33.6047 36.0004 34.0002C36.0004 34.5307 35.7896 35.0394 35.4146 35.4144C35.0395 35.7895 34.5308 36.0002 34.0004 36.0002ZM46.2724 34.1322C45.3767 31.7686 44.2117 29.5161 42.8004 27.4192C41.628 25.8306 40.0462 24.5903 38.2238 23.8306C36.4014 23.071 34.407 22.8206 32.4534 23.1062C30.5151 23.3818 28.6855 24.1697 27.1534 25.3885C25.6214 26.6073 24.4423 28.213 23.7381 30.0397C23.0338 31.8664 22.8298 33.8479 23.1472 35.7798C23.4645 37.7117 24.2917 39.5238 25.5434 41.0292C25.8384 41.3836 26.0001 41.8301 26.0004 42.2912V47.0002H39.0004V44.0002H41.2474C41.9743 43.9985 42.676 43.7336 43.2227 43.2546C43.7695 42.7755 44.1242 42.1146 44.2214 41.3942L44.6704 38.0002H47.0004V35.7882C47.0004 35.7882 46.4864 34.6222 46.2724 34.1322ZM42.9174 36.0002L42.2394 41.1312C42.2076 41.3718 42.0894 41.5925 41.9069 41.7524C41.7244 41.9123 41.49 42.0004 41.2474 42.0002H37.0004V45.0002H28.0004V42.2912C27.9998 41.3625 27.6744 40.4632 27.0804 39.7492C26.3061 38.8254 25.7254 37.7553 25.3728 36.6026C25.0203 35.4499 24.903 34.238 25.028 33.0391C25.1531 31.8402 25.5178 30.6787 26.1006 29.6235C26.6835 28.5683 27.4724 27.6411 28.4207 26.8969C29.3689 26.1526 30.4571 25.6066 31.6205 25.2913C32.784 24.9759 33.9989 24.8976 35.1932 25.0611C36.3875 25.2246 37.5367 25.6264 38.5726 26.2428C39.6085 26.8592 40.51 27.6776 41.2234 28.6492C42.519 30.6217 43.5973 32.7286 44.4394 34.9332C44.5954 35.2902 44.7514 35.6482 44.9074 36.0022L42.9174 36.0002Z" fill="white"/>
        </g>
    </g>
    <defs>
        <clipPath id="clip0_94_11">
            <rect width="24" height="24" fill="white" transform="translate(23 23)"/>
        </clipPath>
        <clipPath id="clip1_94_11">
            <rect width="24" height="24" fill="white" transform="translate(23 23)"/>
        </clipPath>
    </defs>
</svg>
