<svg width="70" height="70" viewBox="0 0 70 70" fill="none" xmlns="http://www.w3.org/2000/svg">
    <circle cx="35" cy="35" r="35" fill="#C9884B"/>
    <g clip-path="url(#clip0_94_7)">
        <path d="M32.107 37.916L25.6298 42.6113L24.456 40.992L30.9332 36.2967L32.107 37.916ZM41.4521 28.8026C41.4873 28.0051 41.331 27.2107 40.9963 26.486C40.6616 25.7612 40.1582 25.1271 39.5283 24.6367C38.8983 24.1464 38.1601 23.814 37.3754 23.6673C36.5906 23.5207 35.7822 23.5641 35.0177 23.7939C34.2532 24.0237 33.5548 24.4332 32.9809 24.9882C32.4071 25.5432 31.9745 26.2275 31.7193 26.9839C31.4641 27.7404 31.3938 28.5469 31.5141 29.3361C31.6345 30.1253 31.942 30.8742 32.4111 31.5201L32.998 32.3298L34.6173 31.156L34.0304 30.3463C33.6822 29.8659 33.4842 29.293 33.4616 28.7001C33.4389 28.1072 33.5926 27.5209 33.9032 27.0153C34.2137 26.5097 34.6672 26.1076 35.2063 25.8598C35.7455 25.612 36.3459 25.5296 36.9319 25.623C37.5178 25.7165 38.0629 25.9816 38.4982 26.3848C38.9334 26.7881 39.2394 27.3113 39.3772 27.8884C39.5151 28.4655 39.4788 29.0705 39.2728 29.627C39.0669 30.1834 38.7005 30.6663 38.2201 31.0145L32.5525 35.1229L33.7263 36.7422L41.8229 30.8731C42.1431 30.641 42.5251 30.509 42.9203 30.4939C43.3156 30.4788 43.7065 30.5812 44.0435 30.7883C44.3806 30.9953 44.6487 31.2977 44.8139 31.6571C44.9791 32.0165 45.034 32.4168 44.9717 32.8074C44.9094 33.1981 44.7327 33.5614 44.4639 33.8516C44.195 34.1418 43.8462 34.3457 43.4615 34.4377C43.0767 34.5296 42.6734 34.5054 42.3024 34.3681C41.9315 34.2307 41.6095 33.9865 41.3774 33.6662L39.7581 34.8401C40.1994 35.4488 40.8033 35.9208 41.5006 36.202C42.1978 36.4833 42.9603 36.5623 43.7004 36.43C44.4405 36.2977 45.1284 35.9595 45.6851 35.4542C46.2418 34.9489 46.6448 34.2969 46.8479 33.573C47.051 32.8491 47.046 32.0826 46.8335 31.3614C46.6209 30.6403 46.2094 29.9936 45.6461 29.4956C45.0828 28.9976 44.3906 28.6685 43.6488 28.5459C42.907 28.4233 42.1456 28.5123 41.4521 28.8026ZM36.2967 38.5843L27.3905 45.0403L28.5644 46.6596L37.4705 40.2036C37.7908 39.9714 38.1727 39.8394 38.568 39.8243C38.9633 39.8092 39.3542 39.9117 39.6912 40.1187C40.0283 40.3258 40.2963 40.6281 40.4616 40.9875C40.6268 41.3469 40.6817 41.7473 40.6194 42.1379C40.5571 42.5285 40.3804 42.8919 40.1115 43.1821C39.8427 43.4722 39.4939 43.6762 39.1092 43.7681C38.7244 43.86 38.3211 43.8358 37.9501 43.6985C37.5791 43.5612 37.2572 43.317 37.0251 42.9967L35.4058 44.1705C35.8701 44.811 36.5139 45.2995 37.2558 45.5741C37.9978 45.8488 38.8045 45.8972 39.5739 45.7134C40.3434 45.5295 41.0411 45.1216 41.5787 44.5413C42.1164 43.9609 42.4698 43.2341 42.5944 42.4529C42.719 41.6716 42.6092 40.871 42.2788 40.1522C41.9483 39.4334 41.4122 38.8287 40.7381 38.4146C40.064 38.0005 39.2822 37.7956 38.4917 37.8258C37.7011 37.856 36.9373 38.1199 36.2967 38.5843ZM29.2538 28.8684C28.6312 28.0095 27.6928 27.4331 26.6452 27.266C25.5976 27.0989 24.5265 27.3548 23.6676 27.9775C22.8086 28.6001 22.2322 29.5384 22.0651 30.586C21.898 31.6337 22.154 32.7048 22.7766 33.5637L24.3959 32.3899C24.1637 32.0696 24.0318 31.6877 24.0167 31.2924C24.0016 30.8971 24.104 30.5063 24.3111 30.1692C24.5181 29.8322 24.8204 29.5641 25.1799 29.3989C25.5393 29.2337 25.9396 29.1787 26.3302 29.241C26.7208 29.3033 27.0842 29.4801 27.3744 29.7489C27.6646 30.0177 27.8685 30.3665 27.9605 30.7513C28.0524 31.136 28.0282 31.5394 27.8908 31.9103C27.7535 32.2813 27.5093 32.6032 27.189 32.8354L21.5215 36.9437L22.6953 38.563L28.3628 34.4547C29.2218 33.832 29.7982 32.8937 29.9653 31.8461C30.1324 30.7985 29.8765 29.7274 29.2538 28.8684Z" fill="white"/>
    </g>
    <defs>
        <clipPath id="clip0_94_7">
            <rect width="24" height="24" fill="white" transform="translate(18 32.0858) rotate(-35.938)"/>
        </clipPath>
    </defs>
</svg>
