<svg width="27" height="27" viewBox="0 0 27 27" fill="none" xmlns="http://www.w3.org/2000/svg">
    <path fill-rule="evenodd" clip-rule="evenodd" d="M0 13.2254C0 5.92123 5.92123 0 13.2254 0C20.5296 0 26.4509 5.92123 26.4509 13.2254C26.4509 20.5296 20.5296 26.4509 13.2254 26.4509C5.92123 26.4509 0 20.5296 0 13.2254ZM13.2254 6.61272C16.8624 6.61272 19.8382 9.58844 19.8382 13.2254C19.8382 16.5318 17.441 19.3422 14.1347 19.8382V15.1266H15.7052L16.0358 13.2254H14.2173V11.9855C14.2173 11.4896 14.4653 10.9936 15.2919 10.9936H16.1185V9.34046C16.1185 9.34046 15.3746 9.17515 14.6306 9.17515C13.1428 9.17515 12.1509 10.0844 12.1509 11.7376V13.2254H10.4977V15.1266H12.1509V19.7555C9.00983 19.2595 6.61272 16.5318 6.61272 13.2254C6.61272 9.58844 9.58844 6.61272 13.2254 6.61272Z" fill="#007F90"/>
</svg>
