<svg width="28" height="27" viewBox="0 0 28 27" fill="none" xmlns="http://www.w3.org/2000/svg">
    <path fill-rule="evenodd" clip-rule="evenodd" d="M14.075 26.4509C6.77084 26.4509 0.849609 20.5297 0.849609 13.2255C0.849609 5.92129 6.77084 6.10352e-05 14.075 6.10352e-05C21.3792 6.10352e-05 27.3005 5.92129 27.3005 13.2255C27.3005 20.5297 21.3792 26.4509 14.075 26.4509ZM14.6469 9.92523C13.4624 10.4179 11.0951 11.4376 7.54492 12.9844C6.96842 13.2136 6.66643 13.4379 6.63894 13.6572C6.59248 14.0278 7.05659 14.1737 7.68859 14.3725C7.77456 14.3995 7.86364 14.4275 7.95496 14.4572C8.57675 14.6593 9.41317 14.8958 9.84799 14.9052C10.2424 14.9137 10.6826 14.7511 11.1687 14.4174C14.4857 12.1783 16.198 11.0465 16.3055 11.0221C16.3813 11.0049 16.4864 10.9833 16.5576 11.0466C16.6288 11.1098 16.6218 11.2297 16.6143 11.2619C16.5683 11.4579 14.7465 13.1516 13.8037 14.0281C13.5098 14.3013 13.3013 14.4952 13.2587 14.5394C13.1632 14.6386 13.0659 14.7324 12.9724 14.8225C12.3947 15.3794 11.9615 15.797 12.9964 16.479C13.4937 16.8067 13.8916 17.0777 14.2886 17.348C14.7222 17.6433 15.1546 17.9378 15.7141 18.3045C15.8567 18.398 15.9928 18.495 16.1254 18.5896C16.63 18.9493 17.0833 19.2724 17.6433 19.2209C17.9687 19.191 18.3049 18.885 18.4756 17.9724C18.879 15.8156 19.672 11.1426 19.8553 9.21692C19.8713 9.04821 19.8511 8.83229 19.8349 8.73751C19.8187 8.64272 19.7848 8.50768 19.6616 8.40771C19.5157 8.28931 19.2904 8.26435 19.1897 8.26604C18.7317 8.27419 18.0289 8.51855 14.6469 9.92523Z" fill="#007F90"/>
</svg>
