<svg width="27" height="27" viewBox="0 0 27 27" fill="none" xmlns="http://www.w3.org/2000/svg">
    <circle cx="13.7745" cy="13.7745" r="13.2254" fill="white"/>
    <g clip-path="url(#clip0_32_270)">
        <path d="M18.2881 8.45488C17.9585 8.15996 16.64 7.18844 13.6734 7.17109C13.6734 7.17109 10.1864 6.96291 8.48625 8.52427C7.53209 9.47844 7.20246 10.849 7.16777 12.5665C7.13307 14.284 7.08103 17.4934 10.1864 18.3782V19.714C10.1864 19.714 10.1691 20.2519 10.516 20.3559C10.9497 20.4947 11.1926 20.0784 11.609 19.6447C11.8345 19.4018 12.1468 19.0548 12.3723 18.7772C14.4888 18.9507 16.1196 18.5517 16.3104 18.4823C16.7441 18.3435 19.1556 18.0312 19.5546 14.8218C19.971 11.4909 19.3811 9.3917 18.2881 8.45488ZM18.6525 14.5615C18.3228 17.2506 16.3625 17.424 15.9982 17.5281C15.842 17.5802 14.4194 17.9272 12.6152 17.8231C12.6152 17.8231 11.2794 19.4365 10.8456 19.8702C10.7763 19.9396 10.7069 19.9569 10.6548 19.9569C10.5854 19.9396 10.5681 19.8528 10.5681 19.7314C10.5681 19.5579 10.5854 17.5108 10.5854 17.5108C7.9658 16.7822 8.12193 14.0411 8.13928 12.6012C8.17398 11.1612 8.43421 9.99889 9.23224 9.20086C10.6722 7.89973 13.6388 8.09056 13.6388 8.09056C16.1369 8.10791 17.334 8.85389 17.6116 9.11412C18.5137 9.91215 18.9821 11.8031 18.6525 14.5615Z" fill="#4F4F4F"/>
        <path d="M14.8881 12.4972C14.8534 11.838 14.5238 11.491 13.8818 11.4563" stroke="#4F4F4F" stroke-width="0.334305" stroke-linecap="round" stroke-linejoin="round"/>
        <path d="M15.7555 12.7748C15.7728 12.1675 15.582 11.6471 15.2177 11.248C14.836 10.8317 14.3155 10.6061 13.6562 10.5541" stroke="#4F4F4F" stroke-width="0.334305" stroke-linecap="round" stroke-linejoin="round"/>
        <path d="M16.623 13.1218C16.623 12.0635 16.2934 11.2307 15.6688 10.6235C15.0442 10.0163 14.2635 9.70398 13.3267 9.70398" stroke="#4F4F4F" stroke-width="0.334305" stroke-linecap="round" stroke-linejoin="round"/>
        <path d="M13.9164 14.7351C13.9164 14.7351 14.1593 14.7524 14.2807 14.5963L14.5236 14.284C14.645 14.1279 14.9226 14.0238 15.2175 14.1799C15.3737 14.2667 15.6513 14.4402 15.8247 14.579C16.0156 14.7177 16.3972 15.03 16.3972 15.03C16.5881 15.1862 16.6228 15.4117 16.5013 15.6546C16.3799 15.8801 16.2064 16.0883 15.9809 16.2791C15.8074 16.4352 15.6339 16.5046 15.4604 16.5393H15.391C15.3216 16.5393 15.2349 16.522 15.1655 16.5046C14.9053 16.4352 14.4716 16.2444 13.7256 15.8454C13.2572 15.5852 12.8582 15.3076 12.5285 15.0474C12.355 14.9086 12.1642 14.7524 11.9907 14.5616L11.9213 14.4922C11.7305 14.3014 11.5744 14.1279 11.4356 13.9544C11.1753 13.6248 10.8978 13.2258 10.6375 12.7574C10.2385 12.0287 10.0477 11.595 9.9783 11.3174C9.96095 11.248 9.9436 11.1787 9.9436 11.0919V11.0225C9.96095 10.849 10.0477 10.6755 10.2038 10.5021C10.3947 10.2939 10.6028 10.1204 10.8284 9.98161C11.0713 9.86017 11.2968 9.89486 11.4529 10.0857C11.4529 10.0857 11.7652 10.4674 11.904 10.6582C12.0254 10.8317 12.1989 11.1093 12.303 11.2654C12.4591 11.543 12.355 11.8379 12.2163 11.9593L11.904 12.2022C11.7478 12.3237 11.7652 12.5665 11.7652 12.5665C11.7652 12.5665 12.1989 14.284 13.9164 14.7351Z" fill="#4F4F4F"/>
    </g>
    <defs>
        <clipPath id="clip0_32_270">
            <rect width="12.5287" height="13.2213" fill="white" transform="translate(7.16187 7.16187)"/>
        </clipPath>
    </defs>
</svg>
