<svg width="27" height="27" viewBox="0 0 27 27" fill="none" xmlns="http://www.w3.org/2000/svg">
    <circle cx="13.7745" cy="13.2255" r="13.2254" fill="#007F90"/>
    <g clip-path="url(#clip0_32_279)">
        <path d="M18.2881 7.90593C17.9585 7.611 16.64 6.63949 13.6734 6.62214C13.6734 6.62214 10.1864 6.41396 8.48625 7.97532C7.53209 8.92949 7.20246 10.3 7.16777 12.0175C7.13307 13.735 7.08103 16.9445 10.1864 17.8293V19.1651C10.1864 19.1651 10.1691 19.7029 10.516 19.807C10.9497 19.9458 11.1926 19.5294 11.609 19.0957C11.8345 18.8528 12.1468 18.5059 12.3723 18.2283C14.4888 18.4018 16.1196 18.0027 16.3104 17.9334C16.7441 17.7946 19.1556 17.4823 19.5546 14.2728C19.971 10.9419 19.3811 8.84275 18.2881 7.90593ZM18.6525 14.0126C18.3228 16.7016 16.3625 16.8751 15.9982 16.9792C15.842 17.0312 14.4194 17.3782 12.6152 17.2741C12.6152 17.2741 11.2794 18.8875 10.8456 19.3212C10.7763 19.3906 10.7069 19.408 10.6548 19.408C10.5854 19.3906 10.5681 19.3039 10.5681 19.1824C10.5681 19.009 10.5854 16.9618 10.5854 16.9618C7.9658 16.2332 8.12193 13.4921 8.13928 12.0522C8.17398 10.6123 8.43421 9.44994 9.23224 8.65191C10.6722 7.35078 13.6388 7.54161 13.6388 7.54161C16.1369 7.55896 17.334 8.30494 17.6116 8.56517C18.5137 9.3632 18.9821 11.2542 18.6525 14.0126Z" fill="#F8F8F8"/>
        <path d="M14.8881 11.9482C14.8534 11.289 14.5238 10.942 13.8818 10.9073" stroke="#F8F8F8" stroke-width="0.334305" stroke-linecap="round" stroke-linejoin="round"/>
        <path d="M15.7555 12.2258C15.7728 11.6186 15.582 11.0981 15.2177 10.6991C14.836 10.2827 14.3155 10.0572 13.6562 10.0051" stroke="#F8F8F8" stroke-width="0.334305" stroke-linecap="round" stroke-linejoin="round"/>
        <path d="M16.623 12.5728C16.623 11.5145 16.2934 10.6818 15.6688 10.0745C15.0442 9.46731 14.2635 9.15503 13.3267 9.15503" stroke="#F8F8F8" stroke-width="0.334305" stroke-linecap="round" stroke-linejoin="round"/>
        <path d="M13.9164 14.1861C13.9164 14.1861 14.1593 14.2034 14.2807 14.0473L14.5236 13.735C14.645 13.5789 14.9226 13.4748 15.2175 13.6309C15.3737 13.7177 15.6513 13.8912 15.8247 14.0299C16.0156 14.1687 16.3972 14.481 16.3972 14.481C16.5881 14.6371 16.6228 14.8627 16.5013 15.1056C16.3799 15.3311 16.2064 15.5393 15.9809 15.7301C15.8074 15.8862 15.6339 15.9556 15.4604 15.9903H15.391C15.3216 15.9903 15.2349 15.973 15.1655 15.9556C14.9053 15.8862 14.4716 15.6954 13.7256 15.2964C13.2572 15.0362 12.8582 14.7586 12.5285 14.4984C12.355 14.3596 12.1642 14.2034 11.9907 14.0126L11.9213 13.9432C11.7305 13.7524 11.5744 13.5789 11.4356 13.4054C11.1753 13.0758 10.8978 12.6768 10.6375 12.2084C10.2385 11.4797 10.0477 11.046 9.9783 10.7684C9.96095 10.699 9.9436 10.6296 9.9436 10.5429V10.4735C9.96095 10.3 10.0477 10.1265 10.2038 9.95305C10.3947 9.74487 10.6028 9.57138 10.8284 9.43259C11.0713 9.31116 11.2968 9.34585 11.4529 9.53669C11.4529 9.53669 11.7652 9.91836 11.904 10.1092C12.0254 10.2827 12.1989 10.5603 12.303 10.7164C12.4591 10.994 12.355 11.2889 12.2163 11.4103L11.904 11.6532C11.7478 11.7746 11.7652 12.0175 11.7652 12.0175C11.7652 12.0175 12.1989 13.735 13.9164 14.1861Z" fill="#F8F8F8"/>
    </g>
    <defs>
        <clipPath id="clip0_32_279">
            <rect width="12.5287" height="13.2213" fill="white" transform="translate(7.16187 6.61285)"/>
        </clipPath>
    </defs>
</svg>
