<svg width="28" height="27" viewBox="0 0 28 27" fill="none" xmlns="http://www.w3.org/2000/svg">
    <path fill-rule="evenodd" clip-rule="evenodd" d="M11.1145 17.9371C11.9411 18.433 12.933 18.681 13.9249 18.681C16.9833 18.681 19.3804 16.2012 19.3804 13.3082C19.3804 11.8203 18.8844 10.4977 17.8099 9.42318C16.7353 8.43127 15.4128 7.85266 13.9249 7.85266C10.9492 7.85266 8.4694 10.3324 8.4694 13.3082C8.4694 14.3001 8.71738 15.292 9.29599 16.2012L9.46132 16.4492L8.8827 18.433L10.9492 17.8544L11.1145 17.9371ZM15.7434 14.0521C15.9087 14.0521 16.7353 14.4654 16.9006 14.548C16.9264 14.5609 16.9521 14.5718 16.9775 14.5825C17.1154 14.6407 17.2441 14.6951 17.3139 15.044C17.3966 15.044 17.3966 15.3746 17.2313 15.7879C17.1486 16.1186 16.4873 16.5319 16.1567 16.5319C16.1007 16.5319 16.047 16.5366 15.9897 16.5417C15.7088 16.5665 15.34 16.5991 14.1729 16.1186C12.7243 15.5391 11.72 14.1347 11.438 13.7403C11.3981 13.6846 11.3727 13.649 11.3625 13.6388C11.3484 13.6106 11.3199 13.5657 11.2824 13.5065C11.0995 13.2177 10.7012 12.5888 10.7012 11.903C10.7012 11.0764 11.1145 10.6631 11.2798 10.4977C11.4451 10.3324 11.6104 10.3324 11.6931 10.3324H12.0238C12.1064 10.3324 12.2717 10.3324 12.3544 10.5804C12.5197 10.911 12.8503 11.7376 12.8503 11.8203C12.8503 11.8478 12.8595 11.8754 12.8687 11.903C12.8871 11.9581 12.9054 12.0132 12.8503 12.0683C12.809 12.1096 12.7883 12.1509 12.7677 12.1923C12.747 12.2336 12.7263 12.2749 12.685 12.3162L12.437 12.5642C12.3544 12.6469 12.2717 12.7295 12.3544 12.8949C12.437 13.0602 12.7677 13.6388 13.2636 14.0521C13.8217 14.5404 14.262 14.7343 14.4852 14.8327C14.5265 14.8509 14.5604 14.8658 14.5862 14.8787C14.7515 14.8787 14.8342 14.8787 14.9168 14.796C14.9581 14.7134 15.0615 14.5894 15.1648 14.4654C15.2681 14.3414 15.3714 14.2174 15.4127 14.1347C15.4954 13.9694 15.5781 13.9694 15.7434 14.0521Z" fill="#007F90"/>
    <path fill-rule="evenodd" clip-rule="evenodd" d="M0.699463 13.2255C0.699463 5.92129 6.62069 6.10352e-05 13.9249 6.10352e-05C21.2291 6.10352e-05 27.1503 5.92129 27.1503 13.2255C27.1503 20.5297 21.2291 26.4509 13.9249 26.4509C6.62069 26.4509 0.699463 20.5297 0.699463 13.2255ZM13.9249 6.61278C15.6607 6.61278 17.3139 7.27405 18.5538 8.51394C19.7937 9.75382 20.5376 11.407 20.5376 13.1428C20.5376 16.7798 17.5619 19.7556 13.9249 19.7556C12.8503 19.7556 11.7758 19.4249 10.7839 18.929L7.31218 19.8382L8.22143 16.5319C7.64282 15.5399 7.31218 14.3827 7.31218 13.2255C7.31218 9.5885 10.2879 6.61278 13.9249 6.61278Z" fill="#007F90"/>
</svg>
